<mxfile host="app.diagrams.net" modified="2022-10-06T08:54:01.225Z" agent="5.0 (Macintosh; Intel Mac OS X 10_15_7) AppleWebKit/537.36 (KHTML, like Gecko) Chrome/105.0.0.0 Safari/537.36" etag="6TDpo8blp1ecVm8PJB17" version="20.4.0" type="github">
  <diagram id="ct4PWj1oz_xdW_dxJHrt" name="Page-1">
    <mxGraphModel dx="1689" dy="467" grid="1" gridSize="10" guides="1" tooltips="1" connect="1" arrows="1" fold="1" page="1" pageScale="1" pageWidth="850" pageHeight="1100" math="0" shadow="0">
      <root>
        <mxCell id="0" />
        <mxCell id="1" parent="0" />
        <mxCell id="hxinQ9qNP2bcRwJudDhg-1" value="" style="ellipse;whiteSpace=wrap;html=1;aspect=fixed;" vertex="1" parent="1">
          <mxGeometry x="330" y="270" width="30" height="30" as="geometry" />
        </mxCell>
        <mxCell id="hxinQ9qNP2bcRwJudDhg-2" value="" style="ellipse;whiteSpace=wrap;html=1;aspect=fixed;" vertex="1" parent="1">
          <mxGeometry x="400" y="260" width="30" height="30" as="geometry" />
        </mxCell>
        <mxCell id="hxinQ9qNP2bcRwJudDhg-3" value="" style="ellipse;whiteSpace=wrap;html=1;aspect=fixed;" vertex="1" parent="1">
          <mxGeometry x="380" y="320" width="30" height="30" as="geometry" />
        </mxCell>
        <mxCell id="hxinQ9qNP2bcRwJudDhg-4" value="" style="ellipse;whiteSpace=wrap;html=1;aspect=fixed;" vertex="1" parent="1">
          <mxGeometry x="450" y="300" width="30" height="30" as="geometry" />
        </mxCell>
        <mxCell id="hxinQ9qNP2bcRwJudDhg-5" value="" style="ellipse;whiteSpace=wrap;html=1;aspect=fixed;" vertex="1" parent="1">
          <mxGeometry x="430" y="360" width="30" height="30" as="geometry" />
        </mxCell>
        <mxCell id="hxinQ9qNP2bcRwJudDhg-6" value="" style="ellipse;whiteSpace=wrap;html=1;aspect=fixed;fillColor=#f8cecc;strokeColor=#b85450;" vertex="1" parent="1">
          <mxGeometry x="330" y="370" width="30" height="30" as="geometry" />
        </mxCell>
        <mxCell id="hxinQ9qNP2bcRwJudDhg-7" value="" style="ellipse;whiteSpace=wrap;html=1;aspect=fixed;" vertex="1" parent="1">
          <mxGeometry x="220" y="360" width="30" height="30" as="geometry" />
        </mxCell>
        <mxCell id="hxinQ9qNP2bcRwJudDhg-8" value="" style="ellipse;whiteSpace=wrap;html=1;aspect=fixed;" vertex="1" parent="1">
          <mxGeometry x="270" y="410" width="30" height="30" as="geometry" />
        </mxCell>
        <mxCell id="hxinQ9qNP2bcRwJudDhg-9" value="" style="ellipse;whiteSpace=wrap;html=1;aspect=fixed;" vertex="1" parent="1">
          <mxGeometry x="370" y="420" width="30" height="30" as="geometry" />
        </mxCell>
        <mxCell id="hxinQ9qNP2bcRwJudDhg-10" value="" style="ellipse;whiteSpace=wrap;html=1;aspect=fixed;" vertex="1" parent="1">
          <mxGeometry x="440" y="420" width="30" height="30" as="geometry" />
        </mxCell>
        <mxCell id="hxinQ9qNP2bcRwJudDhg-11" value="Sybil" style="shape=umlActor;verticalLabelPosition=bottom;verticalAlign=top;html=1;outlineConnect=0;fillColor=#f8cecc;strokeColor=#b85450;" vertex="1" parent="1">
          <mxGeometry x="120" y="260" width="30" height="60" as="geometry" />
        </mxCell>
        <mxCell id="hxinQ9qNP2bcRwJudDhg-13" value="" style="endArrow=none;html=1;rounded=0;strokeWidth=1.5;entryX=0;entryY=0.5;entryDx=0;entryDy=0;exitX=0.5;exitY=0.5;exitDx=0;exitDy=0;exitPerimeter=0;" edge="1" parent="1" source="hxinQ9qNP2bcRwJudDhg-11" target="hxinQ9qNP2bcRwJudDhg-6">
          <mxGeometry width="50" height="50" relative="1" as="geometry">
            <mxPoint x="160" y="290" as="sourcePoint" />
            <mxPoint x="450" y="380" as="targetPoint" />
          </mxGeometry>
        </mxCell>
        <mxCell id="hxinQ9qNP2bcRwJudDhg-14" value="" style="endArrow=none;html=1;rounded=0;strokeWidth=1.5;exitX=0;exitY=0;exitDx=0;exitDy=0;entryX=1;entryY=1;entryDx=0;entryDy=0;" edge="1" parent="1" source="hxinQ9qNP2bcRwJudDhg-3" target="hxinQ9qNP2bcRwJudDhg-1">
          <mxGeometry width="50" height="50" relative="1" as="geometry">
            <mxPoint x="115" y="440" as="sourcePoint" />
            <mxPoint x="340" y="395" as="targetPoint" />
          </mxGeometry>
        </mxCell>
        <mxCell id="hxinQ9qNP2bcRwJudDhg-15" value="" style="endArrow=none;html=1;rounded=0;strokeWidth=1.5;exitX=0;exitY=0.5;exitDx=0;exitDy=0;entryX=1;entryY=0.5;entryDx=0;entryDy=0;" edge="1" parent="1" source="hxinQ9qNP2bcRwJudDhg-2" target="hxinQ9qNP2bcRwJudDhg-1">
          <mxGeometry width="50" height="50" relative="1" as="geometry">
            <mxPoint x="394.3933982822018" y="334.3933982822018" as="sourcePoint" />
            <mxPoint x="365.6066017177982" y="305.6066017177982" as="targetPoint" />
          </mxGeometry>
        </mxCell>
        <mxCell id="hxinQ9qNP2bcRwJudDhg-17" value="" style="endArrow=none;html=1;rounded=0;strokeWidth=1.5;entryX=1;entryY=0;entryDx=0;entryDy=0;" edge="1" parent="1" target="hxinQ9qNP2bcRwJudDhg-3">
          <mxGeometry width="50" height="50" relative="1" as="geometry">
            <mxPoint x="410" y="290" as="sourcePoint" />
            <mxPoint x="370" y="295" as="targetPoint" />
          </mxGeometry>
        </mxCell>
        <mxCell id="hxinQ9qNP2bcRwJudDhg-18" value="" style="endArrow=none;html=1;rounded=0;strokeWidth=1.5;entryX=0;entryY=0;entryDx=0;entryDy=0;exitX=1;exitY=1;exitDx=0;exitDy=0;" edge="1" parent="1" source="hxinQ9qNP2bcRwJudDhg-2" target="hxinQ9qNP2bcRwJudDhg-4">
          <mxGeometry width="50" height="50" relative="1" as="geometry">
            <mxPoint x="420" y="300" as="sourcePoint" />
            <mxPoint x="415.6066017177982" y="334.3933982822018" as="targetPoint" />
          </mxGeometry>
        </mxCell>
        <mxCell id="hxinQ9qNP2bcRwJudDhg-19" value="" style="endArrow=none;html=1;rounded=0;strokeWidth=1.5;entryX=1;entryY=1;entryDx=0;entryDy=0;exitX=0;exitY=0;exitDx=0;exitDy=0;" edge="1" parent="1" source="hxinQ9qNP2bcRwJudDhg-5" target="hxinQ9qNP2bcRwJudDhg-3">
          <mxGeometry width="50" height="50" relative="1" as="geometry">
            <mxPoint x="420" y="300" as="sourcePoint" />
            <mxPoint x="415.6066017177982" y="334.3933982822018" as="targetPoint" />
          </mxGeometry>
        </mxCell>
        <mxCell id="hxinQ9qNP2bcRwJudDhg-20" value="" style="endArrow=none;html=1;rounded=0;strokeWidth=1.5;entryX=0.5;entryY=1;entryDx=0;entryDy=0;exitX=1;exitY=0;exitDx=0;exitDy=0;" edge="1" parent="1" source="hxinQ9qNP2bcRwJudDhg-5" target="hxinQ9qNP2bcRwJudDhg-4">
          <mxGeometry width="50" height="50" relative="1" as="geometry">
            <mxPoint x="435.6066017177982" y="295.6066017177982" as="sourcePoint" />
            <mxPoint x="464.3933982822018" y="314.3933982822018" as="targetPoint" />
          </mxGeometry>
        </mxCell>
        <mxCell id="hxinQ9qNP2bcRwJudDhg-21" value="" style="endArrow=none;html=1;rounded=0;strokeWidth=1.5;exitX=0.5;exitY=1;exitDx=0;exitDy=0;" edge="1" parent="1" source="hxinQ9qNP2bcRwJudDhg-5" target="hxinQ9qNP2bcRwJudDhg-10">
          <mxGeometry width="50" height="50" relative="1" as="geometry">
            <mxPoint x="465.6066017177982" y="374.3933982822018" as="sourcePoint" />
            <mxPoint x="475" y="340" as="targetPoint" />
          </mxGeometry>
        </mxCell>
        <mxCell id="hxinQ9qNP2bcRwJudDhg-22" value="" style="endArrow=none;html=1;rounded=0;strokeWidth=1.5;exitX=0;exitY=0.5;exitDx=0;exitDy=0;entryX=1;entryY=0.5;entryDx=0;entryDy=0;" edge="1" parent="1" source="hxinQ9qNP2bcRwJudDhg-10" target="hxinQ9qNP2bcRwJudDhg-9">
          <mxGeometry width="50" height="50" relative="1" as="geometry">
            <mxPoint x="455" y="400" as="sourcePoint" />
            <mxPoint x="461.74604313271993" y="430.3571940972397" as="targetPoint" />
          </mxGeometry>
        </mxCell>
        <mxCell id="hxinQ9qNP2bcRwJudDhg-23" value="" style="endArrow=none;html=1;rounded=0;strokeWidth=1.5;exitX=0;exitY=0.5;exitDx=0;exitDy=0;entryX=1;entryY=0.5;entryDx=0;entryDy=0;" edge="1" parent="1" source="hxinQ9qNP2bcRwJudDhg-5" target="hxinQ9qNP2bcRwJudDhg-6">
          <mxGeometry width="50" height="50" relative="1" as="geometry">
            <mxPoint x="450" y="445" as="sourcePoint" />
            <mxPoint x="410" y="445" as="targetPoint" />
          </mxGeometry>
        </mxCell>
        <mxCell id="hxinQ9qNP2bcRwJudDhg-24" value="" style="endArrow=none;html=1;rounded=0;strokeWidth=1.5;exitX=0;exitY=0;exitDx=0;exitDy=0;" edge="1" parent="1" source="hxinQ9qNP2bcRwJudDhg-9">
          <mxGeometry width="50" height="50" relative="1" as="geometry">
            <mxPoint x="440" y="385" as="sourcePoint" />
            <mxPoint x="350" y="400" as="targetPoint" />
          </mxGeometry>
        </mxCell>
        <mxCell id="hxinQ9qNP2bcRwJudDhg-25" value="" style="endArrow=none;html=1;rounded=0;strokeWidth=1.5;exitX=0;exitY=0.5;exitDx=0;exitDy=0;entryX=1;entryY=1;entryDx=0;entryDy=0;" edge="1" parent="1" source="hxinQ9qNP2bcRwJudDhg-9" target="hxinQ9qNP2bcRwJudDhg-8">
          <mxGeometry width="50" height="50" relative="1" as="geometry">
            <mxPoint x="384.3933982822018" y="434.3933982822018" as="sourcePoint" />
            <mxPoint x="360" y="410" as="targetPoint" />
          </mxGeometry>
        </mxCell>
        <mxCell id="hxinQ9qNP2bcRwJudDhg-26" value="" style="endArrow=none;html=1;rounded=0;strokeWidth=1.5;exitX=0;exitY=0;exitDx=0;exitDy=0;entryX=1;entryY=1;entryDx=0;entryDy=0;" edge="1" parent="1" source="hxinQ9qNP2bcRwJudDhg-8" target="hxinQ9qNP2bcRwJudDhg-7">
          <mxGeometry width="50" height="50" relative="1" as="geometry">
            <mxPoint x="380" y="445" as="sourcePoint" />
            <mxPoint x="305.6066017177982" y="445.6066017177982" as="targetPoint" />
          </mxGeometry>
        </mxCell>
        <mxCell id="hxinQ9qNP2bcRwJudDhg-27" value="" style="endArrow=none;html=1;rounded=0;strokeWidth=1.5;exitX=0;exitY=0.5;exitDx=0;exitDy=0;entryX=1;entryY=0.5;entryDx=0;entryDy=0;" edge="1" parent="1" source="hxinQ9qNP2bcRwJudDhg-6" target="hxinQ9qNP2bcRwJudDhg-7">
          <mxGeometry width="50" height="50" relative="1" as="geometry">
            <mxPoint x="284.3933982822018" y="424.3933982822018" as="sourcePoint" />
            <mxPoint x="255.60660171779818" y="395.6066017177982" as="targetPoint" />
          </mxGeometry>
        </mxCell>
        <mxCell id="hxinQ9qNP2bcRwJudDhg-28" value="" style="endArrow=none;html=1;rounded=0;strokeWidth=1.5;exitX=1;exitY=0;exitDx=0;exitDy=0;entryX=0;entryY=1;entryDx=0;entryDy=0;" edge="1" parent="1" source="hxinQ9qNP2bcRwJudDhg-8" target="hxinQ9qNP2bcRwJudDhg-6">
          <mxGeometry width="50" height="50" relative="1" as="geometry">
            <mxPoint x="384.3933982822018" y="434.3933982822018" as="sourcePoint" />
            <mxPoint x="360" y="410" as="targetPoint" />
          </mxGeometry>
        </mxCell>
        <mxCell id="hxinQ9qNP2bcRwJudDhg-29" value="" style="ellipse;whiteSpace=wrap;html=1;aspect=fixed;" vertex="1" parent="1">
          <mxGeometry x="210" y="170" width="30" height="30" as="geometry" />
        </mxCell>
        <mxCell id="hxinQ9qNP2bcRwJudDhg-30" value="Honest nodes" style="text;html=1;strokeColor=none;fillColor=none;align=center;verticalAlign=middle;whiteSpace=wrap;rounded=0;" vertex="1" parent="1">
          <mxGeometry x="230" y="175" width="100" height="20" as="geometry" />
        </mxCell>
        <mxCell id="hxinQ9qNP2bcRwJudDhg-31" value="" style="ellipse;whiteSpace=wrap;html=1;aspect=fixed;fillColor=#ffe6cc;strokeColor=#d79b00;" vertex="1" parent="1">
          <mxGeometry x="40" y="370" width="30" height="30" as="geometry" />
        </mxCell>
        <mxCell id="hxinQ9qNP2bcRwJudDhg-32" value="" style="ellipse;whiteSpace=wrap;html=1;aspect=fixed;fillColor=#ffe6cc;strokeColor=#d79b00;" vertex="1" parent="1">
          <mxGeometry x="60" y="320" width="30" height="30" as="geometry" />
        </mxCell>
        <mxCell id="hxinQ9qNP2bcRwJudDhg-33" value="" style="ellipse;whiteSpace=wrap;html=1;aspect=fixed;fillColor=#ffe6cc;strokeColor=#d79b00;" vertex="1" parent="1">
          <mxGeometry x="100" y="360" width="30" height="30" as="geometry" />
        </mxCell>
        <mxCell id="hxinQ9qNP2bcRwJudDhg-34" value="" style="ellipse;whiteSpace=wrap;html=1;aspect=fixed;fillColor=#ffe6cc;strokeColor=#d79b00;" vertex="1" parent="1">
          <mxGeometry x="60" y="260" width="30" height="30" as="geometry" />
        </mxCell>
        <mxCell id="hxinQ9qNP2bcRwJudDhg-35" value="" style="ellipse;whiteSpace=wrap;html=1;aspect=fixed;fillColor=#ffe6cc;strokeColor=#d79b00;" vertex="1" parent="1">
          <mxGeometry x="200" y="270" width="30" height="30" as="geometry" />
        </mxCell>
        <mxCell id="hxinQ9qNP2bcRwJudDhg-36" value="" style="ellipse;whiteSpace=wrap;html=1;aspect=fixed;fillColor=#ffe6cc;strokeColor=#d79b00;" vertex="1" parent="1">
          <mxGeometry x="100" y="210" width="30" height="30" as="geometry" />
        </mxCell>
        <mxCell id="hxinQ9qNP2bcRwJudDhg-37" value="" style="ellipse;whiteSpace=wrap;html=1;aspect=fixed;fillColor=#ffe6cc;strokeColor=#d79b00;" vertex="1" parent="1">
          <mxGeometry x="160" y="220" width="30" height="30" as="geometry" />
        </mxCell>
        <mxCell id="hxinQ9qNP2bcRwJudDhg-38" value="" style="ellipse;whiteSpace=wrap;html=1;aspect=fixed;fillColor=#ffe6cc;strokeColor=#d79b00;" vertex="1" parent="1">
          <mxGeometry x="150" y="350" width="30" height="30" as="geometry" />
        </mxCell>
        <mxCell id="hxinQ9qNP2bcRwJudDhg-39" value="" style="ellipse;whiteSpace=wrap;html=1;aspect=fixed;fillColor=#ffe6cc;strokeColor=#d79b00;" vertex="1" parent="1">
          <mxGeometry x="20" y="300" width="30" height="30" as="geometry" />
        </mxCell>
        <mxCell id="hxinQ9qNP2bcRwJudDhg-40" value="" style="ellipse;whiteSpace=wrap;html=1;aspect=fixed;fillColor=#ffe6cc;strokeColor=#d79b00;" vertex="1" parent="1">
          <mxGeometry x="50" y="220" width="30" height="30" as="geometry" />
        </mxCell>
        <mxCell id="hxinQ9qNP2bcRwJudDhg-41" value="" style="ellipse;whiteSpace=wrap;html=1;aspect=fixed;fillColor=#ffe6cc;strokeColor=#d79b00;" vertex="1" parent="1">
          <mxGeometry x="-10" y="260" width="30" height="30" as="geometry" />
        </mxCell>
        <mxCell id="hxinQ9qNP2bcRwJudDhg-42" value="" style="ellipse;whiteSpace=wrap;html=1;aspect=fixed;fillColor=#ffe6cc;strokeColor=#d79b00;" vertex="1" parent="1">
          <mxGeometry x="-10" y="350" width="30" height="30" as="geometry" />
        </mxCell>
        <mxCell id="hxinQ9qNP2bcRwJudDhg-43" value="" style="ellipse;whiteSpace=wrap;html=1;aspect=fixed;fillColor=#ffe6cc;strokeColor=#d79b00;" vertex="1" parent="1">
          <mxGeometry y="200" width="30" height="30" as="geometry" />
        </mxCell>
        <mxCell id="hxinQ9qNP2bcRwJudDhg-44" value="" style="ellipse;whiteSpace=wrap;html=1;aspect=fixed;fillColor=#ffe6cc;strokeColor=#d79b00;" vertex="1" parent="1">
          <mxGeometry x="60" y="170" width="30" height="30" as="geometry" />
        </mxCell>
        <mxCell id="hxinQ9qNP2bcRwJudDhg-45" value="" style="ellipse;whiteSpace=wrap;html=1;aspect=fixed;fillColor=#ffe6cc;strokeColor=#d79b00;" vertex="1" parent="1">
          <mxGeometry x="130" y="170" width="30" height="30" as="geometry" />
        </mxCell>
        <mxCell id="hxinQ9qNP2bcRwJudDhg-46" value="" style="ellipse;whiteSpace=wrap;html=1;aspect=fixed;fillColor=#ffe6cc;strokeColor=#d79b00;" vertex="1" parent="1">
          <mxGeometry x="80" y="400" width="30" height="30" as="geometry" />
        </mxCell>
        <mxCell id="hxinQ9qNP2bcRwJudDhg-47" value="" style="ellipse;whiteSpace=wrap;html=1;aspect=fixed;fillColor=#f8cecc;strokeColor=#b85450;" vertex="1" parent="1">
          <mxGeometry x="340" y="170" width="30" height="30" as="geometry" />
        </mxCell>
        <mxCell id="hxinQ9qNP2bcRwJudDhg-48" value="Sybil node" style="text;html=1;strokeColor=none;fillColor=none;align=center;verticalAlign=middle;whiteSpace=wrap;rounded=0;" vertex="1" parent="1">
          <mxGeometry x="350" y="175" width="100" height="20" as="geometry" />
        </mxCell>
        <mxCell id="hxinQ9qNP2bcRwJudDhg-49" value="" style="ellipse;whiteSpace=wrap;html=1;aspect=fixed;fillColor=#ffe6cc;strokeColor=#d79b00;" vertex="1" parent="1">
          <mxGeometry x="450" y="170" width="30" height="30" as="geometry" />
        </mxCell>
        <mxCell id="hxinQ9qNP2bcRwJudDhg-51" value="&lt;div&gt;Sybil creates a large number of duplicate identities at low cost&lt;/div&gt;&lt;div&gt;Eventually overcome the entire blockchain&lt;/div&gt;" style="text;html=1;strokeColor=none;fillColor=none;align=center;verticalAlign=middle;whiteSpace=wrap;rounded=0;" vertex="1" parent="1">
          <mxGeometry x="-30" y="440" width="220" height="70" as="geometry" />
        </mxCell>
        <mxCell id="hxinQ9qNP2bcRwJudDhg-52" value="duplicate nodes" style="text;html=1;strokeColor=none;fillColor=none;align=center;verticalAlign=middle;whiteSpace=wrap;rounded=0;" vertex="1" parent="1">
          <mxGeometry x="470" y="170" width="110" height="30" as="geometry" />
        </mxCell>
        <mxCell id="hxinQ9qNP2bcRwJudDhg-53" value="" style="endArrow=none;html=1;rounded=0;strokeWidth=1.5;exitX=1;exitY=1;exitDx=0;exitDy=0;entryX=0;entryY=0;entryDx=0;entryDy=0;" edge="1" parent="1" source="hxinQ9qNP2bcRwJudDhg-37" target="hxinQ9qNP2bcRwJudDhg-35">
          <mxGeometry width="50" height="50" relative="1" as="geometry">
            <mxPoint x="258.7833982822018" y="304.3933982822018" as="sourcePoint" />
            <mxPoint x="229.99660171779817" y="275.6066017177982" as="targetPoint" />
          </mxGeometry>
        </mxCell>
        <mxCell id="hxinQ9qNP2bcRwJudDhg-54" value="" style="endArrow=none;html=1;rounded=0;strokeWidth=1.5;exitX=1;exitY=1;exitDx=0;exitDy=0;" edge="1" parent="1" source="hxinQ9qNP2bcRwJudDhg-45">
          <mxGeometry width="50" height="50" relative="1" as="geometry">
            <mxPoint x="185.60660171779818" y="255.60660171779818" as="sourcePoint" />
            <mxPoint x="170" y="220" as="targetPoint" />
          </mxGeometry>
        </mxCell>
        <mxCell id="hxinQ9qNP2bcRwJudDhg-55" value="" style="endArrow=none;html=1;rounded=0;strokeWidth=1.5;exitX=1;exitY=0.5;exitDx=0;exitDy=0;entryX=0;entryY=0.5;entryDx=0;entryDy=0;" edge="1" parent="1" source="hxinQ9qNP2bcRwJudDhg-44" target="hxinQ9qNP2bcRwJudDhg-45">
          <mxGeometry width="50" height="50" relative="1" as="geometry">
            <mxPoint x="165.60660171779796" y="205.60660171779807" as="sourcePoint" />
            <mxPoint x="180" y="229.9999999999999" as="targetPoint" />
          </mxGeometry>
        </mxCell>
        <mxCell id="hxinQ9qNP2bcRwJudDhg-56" value="" style="endArrow=none;html=1;rounded=0;strokeWidth=1.5;exitX=1;exitY=0;exitDx=0;exitDy=0;entryX=0;entryY=0.5;entryDx=0;entryDy=0;" edge="1" parent="1" source="hxinQ9qNP2bcRwJudDhg-43" target="hxinQ9qNP2bcRwJudDhg-44">
          <mxGeometry width="50" height="50" relative="1" as="geometry">
            <mxPoint x="99.99999999998658" y="194.9999999999999" as="sourcePoint" />
            <mxPoint x="140" y="194.9999999999999" as="targetPoint" />
          </mxGeometry>
        </mxCell>
        <mxCell id="hxinQ9qNP2bcRwJudDhg-57" value="" style="endArrow=none;html=1;rounded=0;strokeWidth=1.5;exitX=0.5;exitY=0;exitDx=0;exitDy=0;entryX=0.347;entryY=0.982;entryDx=0;entryDy=0;entryPerimeter=0;" edge="1" parent="1" source="hxinQ9qNP2bcRwJudDhg-41" target="hxinQ9qNP2bcRwJudDhg-43">
          <mxGeometry width="50" height="50" relative="1" as="geometry">
            <mxPoint x="35.60660171779796" y="214.39339828220193" as="sourcePoint" />
            <mxPoint x="70.00000000001296" y="194.9999999999999" as="targetPoint" />
          </mxGeometry>
        </mxCell>
      </root>
    </mxGraphModel>
  </diagram>
</mxfile>
